{
  "accessors": [
    {
      "bufferView": 1,
      "componentType": 5126,
      "count": 360,
      "max": [
        1.1216399669647217,
        0.55624997615814209,
        0.23175999522209167
      ],
      "min": [
        -0.43772000074386597,
        -0.554889976978302,
        -1.3228600025177002
      ],
      "type": "VEC3"
    },
    {
      "bufferView": 1,
      "byteOffset": 4320,
      "componentType": 5126,
      "count": 360,
      "max": [
        0.99998396635055542,
        0.9732358455657959,
        1
      ],
      "min": [
        -0.99998396635055542,
        -0.9732358455657959,
        -1
      ],
      "type": "VEC3"
    },
    {
      "bufferView": 0,
      "componentType": 5125,
      "count": 2136,
      "max": [
        359
      ],
      "min": [
        0
      ],
      "type": "SCALAR"
    },
    {
      "bufferView": 1,
      "byteOffset": 8640,
      "componentType": 5126,
      "count": 360,
      "max": [
        1.1216399669647217,
        0.55624997615814209,
        0.28338998556137085
      ],
      "min": [
        -1.399649977684021,
        -0.554889976978302,
        -0.19787999987602234
      ],
      "type": "VEC3"
    },
    {
      "bufferView": 1,
      "byteOffset": 12960,
      "componentType": 5126,
      "count": 360,
      "max": [
        0.99752235412597656,
        0.9732358455657959,
        1
      ],
      "min": [
        -0.98962849378585815,
        -0.9732358455657959,
        -1
      ],
      "type": "VEC3"
    },
    {
      "bufferView": 0,
      "byteOffset": 8544,
      "componentType": 5125,
      "count": 2136,
      "max": [
        359
      ],
      "min": [
        0
      ],
      "type": "SCALAR"
    },
    {
      "bufferView": 1,
      "byteOffset": 17280,
      "componentType": 5126,
      "count": 24,
      "max": [
        1,
        1,
        1
      ],
      "min": [
        -1,
        -1,
        -1
      ],
      "type": "VEC3"
    },
    {
      "bufferView": 1,
      "byteOffset": 17568,
      "componentType": 5126,
      "count": 24,
      "max": [
        1,
        1,
        1
      ],
      "min": [
        -1,
        -1,
        -1
      ],
      "type": "VEC3"
    },
    {
      "bufferView": 0,
      "byteOffset": 17088,
      "componentType": 5125,
      "count": 36,
      "max": [
        23
      ],
      "min": [
        0
      ],
      "type": "SCALAR"
    },
    {
      "bufferView": 1,
      "byteOffset": 17856,
      "componentType": 5126,
      "count": 1070,
      "max": [
        0.83147001266479492,
        1,
        0.83147001266479492
      ],
      "min": [
        -0.83147001266479492,
        -1,
        -0.83147001266479492
      ],
      "type": "VEC3"
    },
    {
      "bufferView": 1,
      "byteOffset": 30696,
      "componentType": 5126,
      "count": 1070,
      "max": [
        1,
        1,
        1
      ],
      "min": [
        -1,
        -1,
        -1
      ],
      "type": "VEC3"
    },
    {
      "bufferView": 0,
      "byteOffset": 17232,
      "componentType": 5125,
      "count": 5727,
      "max": [
        1069
      ],
      "min": [
        0
      ],
      "type": "SCALAR"
    },
    {
      "bufferView": 1,
      "byteOffset": 43536,
      "componentType": 5126,
      "count": 518,
      "max": [
        0.83147001266479492,
        0.55557000637054443,
        0.83147001266479492
      ],
      "min": [
        -0.83147001266479492,
        -0.92611002922058105,
        -0.83147001266479492
      ],
      "type": "VEC3"
    },
    {
      "bufferView": 1,
      "byteOffset": 49752,
      "componentType": 5126,
      "count": 518,
      "max": [
        1,
        0.50857603549957275,
        1
      ],
      "min": [
        -1,
        -0.99486976861953735,
        -1
      ],
      "type": "VEC3"
    },
    {
      "bufferView": 0,
      "byteOffset": 40140,
      "componentType": 5125,
      "count": 2241,
      "max": [
        517
      ],
      "min": [
        0
      ],
      "type": "SCALAR"
    }
  ],
  "asset": {
    "extras": {
      "author": "KIΣITO (https://sketchfab.com/kyrayamato07)",
      "license": "CC-BY-4.0 (http://creativecommons.org/licenses/by/4.0/)",
      "source": "https://sketchfab.com/models/7d22e515167d4af3a11c71f3b2ae1713",
      "title": "Haro (Gundam 00)"
    },
    "generator": "Sketchfab-3.18.7",
    "version": "2.0"
  },
  "bufferViews": [
    {
      "buffer": 0,
      "byteLength": 49104,
      "byteOffset": 0,
      "name": "floatBufferViews",
      "target": 34963
    },
    {
      "buffer": 0,
      "byteLength": 55968,
      "byteOffset": 49104,
      "byteStride": 12,
      "name": "floatBufferViews",
      "target": 34962
    }
  ],
  "buffers": [
    {
      "byteLength": 105072,
      "uri": "scene.bin"
    }
  ],
  "extensionsRequired": [
    "KHR_materials_pbrSpecularGlossiness"
  ],
  "extensionsUsed": [
    "KHR_materials_pbrSpecularGlossiness"
  ],
  "materials": [
    {
      "doubleSided": true,
      "emissiveFactor": [
        0,
        0,
        0
      ],
      "extensions": {
        "KHR_materials_pbrSpecularGlossiness": {
          "diffuseFactor": [
            1,
            1,
            1,
            1
          ],
          "glossinessFactor": 0.40000000000000002,
          "specularFactor": [
            0,
            0,
            0
          ]
        }
      },
      "name": "Cube_0"
    },
    {
      "doubleSided": true,
      "emissiveFactor": [
        0,
        0,
        0
      ],
      "extensions": {
        "KHR_materials_pbrSpecularGlossiness": {
          "diffuseFactor": [
            0.80000007149999997,
            0.18668015299999999,
            0,
            1
          ],
          "glossinessFactor": 0.40000000000000002,
          "specularFactor": [
            0,
            0,
            0
          ]
        }
      },
      "name": "Material.001"
    },
    {
      "doubleSided": true,
      "extensions": {
        "KHR_materials_pbrSpecularGlossiness": {
          "diffuseFactor": [
            0.22658422589999999,
            0,
            0.0152047146,
            1
          ],
          "glossinessFactor": 0.40000000000000002,
          "specularFactor": [
            0,
            0,
            0
          ]
        }
      },
      "name": "Material.002"
    }
  ],
  "meshes": [
    {
      "name": "Haro_Orange_03_0",
      "primitives": [
        {
          "attributes": {
            "NORMAL": 1,
            "POSITION": 0
          },
          "indices": 2,
          "material": 1,
          "mode": 4
        }
      ]
    },
    {
      "name": "Haro_Orange_0",
      "primitives": [
        {
          "attributes": {
            "NORMAL": 4,
            "POSITION": 3
          },
          "indices": 5,
          "material": 1,
          "mode": 4
        }
      ]
    },
    {
      "name": "Cube_0",
      "primitives": [
        {
          "attributes": {
            "NORMAL": 7,
            "POSITION": 6
          },
          "indices": 8,
          "material": 0,
          "mode": 4
        }
      ]
    },
    {
      "name": "Haro_Orange_02_0",
      "primitives": [
        {
          "attributes": {
            "NORMAL": 10,
            "POSITION": 9
          },
          "indices": 11,
          "material": 1,
          "mode": 4
        }
      ]
    },
    {
      "name": "Haro_Orange_02_1",
      "primitives": [
        {
          "attributes": {
            "NORMAL": 13,
            "POSITION": 12
          },
          "indices": 14,
          "material": 2,
          "mode": 4
        }
      ]
    }
  ],
  "nodes": [
    {
      "children": [
        1
      ],
      "name": "RootNode (gltf orientation matrix)",
      "rotation": [
        -0.70710678118654746,
        -0,
        -0,
        0.70710678118654757
      ]
    },
    {
      "children": [
        2
      ],
      "name": "RootNode (model correction matrix)"
    },
    {
      "children": [
        3,
        5,
        7,
        9
      ],
      "name": "Root"
    },
    {
      "children": [
        4
      ],
      "matrix": [
        0.70912000000000008,
        -0,
        0.70509000000000011,
        0,
        0,
        -1,
        -0,
        0,
        0.70509000000000011,
        0,
        -0.70912000000000008,
        0,
        0.14295000000000002,
        -0.00068000000000000016,
        -0.94420000000000004,
        1
      ],
      "name": "Haro_Orange_03"
    },
    {
      "mesh": 0,
      "name": "Haro_Orange_03_0"
    },
    {
      "children": [
        6
      ],
      "matrix": [
        0.99931999999999999,
        -0,
        0.036870000000000007,
        0,
        0,
        1,
        0,
        0,
        -0.036870000000000007,
        -0,
        0.99931999999999999,
        0,
        0.14295000000000002,
        -0.00068000000000000016,
        0.94350000000000001,
        1
      ],
      "name": "Haro_Orange"
    },
    {
      "mesh": 1,
      "name": "Haro_Orange_0"
    },
    {
      "children": [
        8
      ],
      "matrix": [
        0.15170000000000003,
        0,
        0,
        0,
        0,
        0.15170000000000003,
        0,
        0,
        0,
        0,
        0.15170000000000003,
        0,
        0,
        0,
        0,
        1
      ],
      "name": "Cube"
    },
    {
      "mesh": 2,
      "name": "Cube_0"
    },
    {
      "children": [
        10,
        11
      ],
      "matrix": [
        0.70711000000000002,
        0,
        -0.70711000000000002,
        0,
        0,
        1,
        0,
        0,
        0.70711000000000002,
        0,
        0.70711000000000002,
        0,
        0,
        0,
        0,
        1
      ],
      "name": "Haro_Orange_02"
    },
    {
      "mesh": 3,
      "name": "Haro_Orange_02_0"
    },
    {
      "mesh": 4,
      "name": "Haro_Orange_02_1"
    }
  ],
  "scene": 0,
  "scenes": [
    {
      "name": "OSG_Scene",
      "nodes": [
        0
      ]
    }
  ]
}

